# xmcd
#
# Track frame offsets: 
#        150
#        14456
#        26529
#        43042
#        62848
#        77845
#        98411
#        112104
#        131635
#        151757
#
# Disc length: 2255 seconds
#
# Revision: 2
# Processed by: cddbd v1.5.2PL0 Copyright (c) Steve Scherf et al.
# Submitted via: ExactAudioCopy v1.0b2
#
DISCID=7708cd0a
DTITLE=蔡依林 - 花蝴蝶
DYEAR=0
DGENRE=Pop
TTITLE0=花蝴蝶
TTITLE1=愛引力
TTITLE2=影舞者
TTITLE3=妥協
TTITLE4=大丈夫
TTITLE5=降落傘
TTITLE6=愈慢愈美麗
TTITLE7=我的依賴
TTITLE8=你快樂我內傷
TTITLE9=熱冬
EXTD=
EXTT0=
EXTT1=
EXTT2=
EXTT3=
EXTT4=
EXTT5=
EXTT6=
EXTT7=
EXTT8=
EXTT9=
PLAYORDER=
